<?xml version="1.0" ?><!DOCTYPE svg  PUBLIC '-//W3C//DTD SVG 1.1//EN'  'http://www.w3.org/Graphics/SVG/1.1/DTD/svg11.dtd'><svg enable-background="new 0 0 24 24" height="24px" id="Layer_1" version="1.1" viewBox="0 0 24 24" width="24px" x="0px" xml:space="preserve" xmlns="http://www.w3.org/2000/svg" xmlns:xlink="http://www.w3.org/1999/xlink" y="0px"><path d="M12,0C5.383,0,0,5.383,0,12s5.383,12,12,12s12-5.383,12-12S18.617,0,12,0z M21.094,7.864l-5.135,3.731  c-0.029-0.286-0.086-0.561-0.173-0.826l0.019-0.006l-2.833-8.715C16.591,2.4,19.645,4.691,21.094,7.864z M12,10c1.103,0,2,0.897,2,2  s-0.897,2-2,2s-2-0.897-2-2S10.897,10,12,10z M10.874,2.068l1.958,6.022C12.563,8.033,12.286,8,12,8H2.841  C4.243,4.801,7.271,2.474,10.874,2.068z M2,12c0-0.685,0.069-1.354,0.202-2h6.354c-0.142,0.242-0.361,0.764-0.361,0.764  l-2.826,8.701C3.308,17.631,2,14.969,2,12z M7.073,20.691l1.96-6.033c0.188,0.21,0.395,0.401,0.623,0.568l-0.008,0.01l7.404,5.378  C15.567,21.489,13.845,22,12,22C10.208,22,8.529,21.52,7.073,20.691z M18.738,19.367l-5.117-3.717  c0.257-0.115,0.497-0.259,0.723-0.424l0.008,0.011l7.41-5.385C21.914,10.544,22,11.262,22,12C22,14.917,20.737,17.538,18.738,19.367  z" fill="#728497"/></svg>