<?xml version="1.0" ?><!DOCTYPE svg  PUBLIC '-//W3C//DTD SVG 1.1//EN'  'http://www.w3.org/Graphics/SVG/1.1/DTD/svg11.dtd'><svg enable-background="new 0 0 24 23.999" height="23.999px" id="Layer_1" version="1.1" viewBox="0 0 24 23.999" width="24px" x="0px" xml:space="preserve" xmlns="http://www.w3.org/2000/svg" xmlns:xlink="http://www.w3.org/1999/xlink" y="0px"><path d="M12,0C5.383,0,0,5.383,0,12s5.383,12,12,12s12-5.383,12-12S18.617,0,12,0z M21.762,9.854l-3.355,2.438  L15.24,2.549C18.506,3.672,21.012,6.435,21.762,9.854z M7.297,13.529L9.096,8h5.814l1.795,5.528L12,16.944L7.297,13.529z M12,2  c0.33,0,0.656,0.018,0.979,0.049L14.262,6H4.02C5.846,3.577,8.738,2,12,2z M2.841,8h4.151l-3.171,9.735C2.678,16.109,2,14.134,2,12  C2,10.577,2.303,9.226,2.841,8z M5.367,19.461l1.279-3.934l8.304,6.026c-0.933,0.289-1.924,0.445-2.95,0.445  C9.453,21.999,7.133,21.034,5.367,19.461z M17.053,20.614l-3.352-2.434l8.291-6.023C21.936,15.759,19.965,18.899,17.053,20.614z" fill="#728497"/></svg>